<svg width="96" height="32" viewBox="0 0 96 32" fill="none" xmlns="http://www.w3.org/2000/svg">
<path fill-rule="evenodd" clip-rule="evenodd" d="M1.83073 25.5529L9.53644 25.4493L9.5584 25.4044L1.25491 24.0751L1.21254 23.9148L8.17499 23.8153C8.17499 23.8153 8.11731 23.6769 7.93966 23.3339L0.776081 22.193L0.751578 22.0327L7.45368 21.9362L7.34903 21.4686L0.553001 20.4537L0.545344 20.2562L7.14739 20.1612L7.09635 19.6748L0.496338 18.59L0.507569 18.4287L7.09839 18.3337C7.06419 18.1454 7.11932 17.7645 7.11932 17.7645L0.600986 16.7722L0.630084 16.6098L7.21631 16.5333C7.21529 16.4393 7.25357 16.0937 7.25357 16.0937L0.842954 14.9426L0.872052 14.7808L7.52056 14.6848C7.52056 14.6848 7.56395 14.3203 7.64001 14.1309L1.23194 13.1529L1.27891 12.9905L7.94119 12.8945C7.94119 12.8945 8.07953 12.5086 8.1561 12.3662L1.77764 11.4039L1.82461 11.26L8.5992 11.1625C8.5992 11.1625 8.79523 10.7546 8.84066 10.6443L2.51121 9.66474L2.57655 9.52027L9.47161 9.42123C9.47161 9.42123 9.65641 9.05828 9.82589 8.80457L3.50307 7.82547L3.5679 7.69887L10.659 7.61465C10.659 7.61465 10.8724 7.27874 11.0587 7.10365L4.66697 6.14599L4.78591 6.00101L12.0358 5.89687C12.0358 5.89687 12.3186 5.58854 12.5207 5.42876L6.23619 4.46957L6.33726 4.32459L13.7244 4.21229L14.2073 3.78399L8.48281 2.5471L8.46903 2.54863C10.926 0.991663 13.9751 0.0508471 17.649 0.00184092C24.4787 -0.0905561 30.2456 3.29036 30.4381 11.2288L21.5588 11.3483C21.2647 8.53402 19.5868 7.57482 17.1962 7.60698C12.0312 7.67641 9.80036 13.2141 9.87081 18.4654C9.9193 22.0505 11.488 24.4207 15.287 24.3686C17.8057 24.3349 19.9278 23.4105 20.8339 20.9219L16.5653 20.9785L17.8435 14.4291L30.3079 14.2611L27.0337 31.084L21.0999 31.1636L21.3163 28.2156L21.23 28.1309C19.3025 30.8038 16.286 31.9544 13.0419 31.9983C6.70072 32.084 3.41884 28.9471 1.83992 25.5785L1.83073 25.5529ZM47.5709 14.4944C46.6612 13.9574 45.534 13.5873 44.0827 13.6041C42.2756 13.6245 40.3128 14.3591 40.3394 16.6313C40.3761 19.8345 46.8924 19.7871 46.9501 24.7969C46.9833 27.6714 45.022 30.9528 40.4226 31.0054C38.2051 31.0314 36.6113 30.5567 35.0712 29.9717L35.9186 27.4433C37.0488 28.1421 38.6155 28.6169 39.957 28.602C42.8591 28.5684 44.0705 26.7475 44.0516 25.1594C44.0072 21.2721 37.4991 22.0316 37.4378 16.7206C37.3975 13.2432 40.5507 11.2355 43.6994 11.1992C45.287 11.1809 46.8511 11.4642 48.309 12.0497L47.5709 14.4944ZM58.514 30.2218C57.1761 30.5659 55.783 30.8283 54.3873 30.8441C50.9926 30.8829 47.9374 29.55 47.8802 24.6218C47.8358 20.7616 50.4949 16.2678 55.4231 16.2106C58.7902 16.1718 60.7025 18.176 60.7413 21.489C60.7515 22.4191 60.6514 23.2149 60.5238 24.0373L50.695 24.1512C50.6439 24.4408 50.6198 24.7346 50.623 25.0287C50.6567 27.9578 52.4735 28.7853 54.9652 28.7567C56.2516 28.7419 57.6442 28.3979 58.8974 27.8624L58.514 30.2218ZM58.0924 22.1491C58.1434 21.7381 58.1664 21.4094 58.1623 21.0801C58.1444 19.4379 57.1174 18.2725 55.1734 18.2944C53.0657 18.3184 51.4714 20.172 50.9482 22.2318L58.0924 22.1491ZM62.4044 18.5936C62.508 18.0172 62.6637 17.2765 62.7633 16.4541L65.1733 16.4261L64.7603 18.6487H64.8149C65.6204 17.3245 67.1121 16.0754 69.5486 16.0473C69.7946 16.0442 70.2336 16.0942 70.7288 16.2806L70.1795 18.5588C69.6849 18.3735 69.2734 18.2954 69.082 18.2985C65.9063 18.3342 64.3851 21.8019 64.0492 23.5309L62.677 30.4194L60.1037 30.4495L62.4044 18.5936ZM71.5236 16.352L74.097 16.3229L71.3011 30.3193L68.7277 30.3494L71.5236 16.352ZM74.9102 13.1922L72.0076 13.2253L72.5757 10.3161L75.4783 10.2829L74.9102 13.1922ZM84.3265 29.9227C82.9885 30.2667 81.5954 30.5291 80.1998 30.5449C76.8051 30.5848 73.7498 29.2509 73.6932 24.3227C73.6483 20.4624 76.3074 15.9687 81.2355 15.9115C84.6027 15.8732 86.5149 17.8779 86.5537 21.1899C86.5639 22.121 86.4639 22.9158 86.3363 23.7392L76.5075 23.852C76.4564 24.1417 76.4323 24.4354 76.4355 24.7295C76.4692 27.6587 78.286 28.4862 80.7776 28.4576C82.064 28.4438 83.4566 28.0987 84.7099 27.5642L84.3265 29.9227ZM83.9048 21.8499C83.9559 21.439 83.9789 21.1102 83.9748 20.781C83.9559 19.1388 82.9298 17.9733 80.9859 17.9953C78.8781 18.0203 77.2839 19.8728 76.7607 21.9326L83.9048 21.8499Z" fill="currentColor"/>
<path fill-rule="evenodd" clip-rule="evenodd" d="M95.2568 18.5424C94.5411 18.1943 93.4145 17.8512 92.4563 17.8625C91.3338 17.8752 89.859 18.1933 89.8748 19.5904C89.9029 21.9713 94.6677 22.0259 94.7127 25.9138C94.7514 29.2819 91.6697 30.4121 89.4802 30.4371C87.2627 30.4632 86.4372 30.1712 85.3933 29.8271L85.8599 27.6045C86.8778 28.0032 87.9508 28.3743 89.0723 28.361C90.469 28.3452 91.9959 27.752 91.9765 26.1644C91.9494 23.7825 87.1815 23.4813 87.1407 19.9498C87.107 16.9926 90.0499 15.8088 92.3501 15.7822C93.5814 15.768 94.8449 16.0543 96.0001 16.5066L95.2568 18.5424Z" fill="currentColor"/>
</svg>
